<svg xmlns="http://www.w3.org/2000/svg" shape-rendering="geometricPrecision" text-rendering="geometricPrecision" image-rendering="optimizeQuality" fill-rule="evenodd" clip-rule="evenodd" viewBox="0 0 512 512"><path fill-rule="nonzero" d="M255.998 0c70.69 0 134.694 28.657 181.017 74.981C483.342 121.308 512 185.309 512 255.998c0 70.69-28.655 134.694-74.985 181.017C390.692 483.345 326.688 512 255.998 512c-70.689 0-134.69-28.658-181.017-74.985C28.657 390.692 0 326.688 0 255.998c0-70.689 28.657-134.687 74.981-181.017C121.311 28.657 185.309 0 255.998 0zm-48.903 349.762l-6.001-48.005h24.904c6.199 0 10.151-.85 11.851-2.55 1.7-1.7 2.55-3.85 2.55-6.451v-82.511h-24.904V162.24h84.911v138.015c0 16.203-4.001 28.505-12.002 36.905-8.001 8.401-19.501 12.602-34.502 12.602h-46.807zm202.728-247.589C370.461 62.812 316.071 38.46 255.998 38.46c-60.072 0-114.46 24.352-153.825 63.713-39.361 39.365-63.713 93.753-63.713 153.825 0 60.073 24.352 114.463 63.713 153.825 39.365 39.365 93.753 63.716 153.825 63.716 60.073 0 114.463-24.351 153.825-63.716 39.365-39.362 63.716-93.752 63.716-153.825 0-60.072-24.351-114.46-63.716-153.825z"/></svg>